# xmcd
# 
# Track frame offsets:
#     150
#     24525
#     48000
#     66037
#     87412
#     112237
#     131512
#     152962
#     175987
#     199012
#     223612
#     245587
# 
# Disc length: 3555
# 
# Revision: 0
# Processed by: cddbd v1.5.2PL0 Copyright (c) Steve Scherf et al.
# Submitted via: fre:ac v1.0.31
# 
DISCID=aa0de10c
DTITLE=角松敏生 - NO TURNS
DYEAR=2009
DGENRE=JPop
TTITLE0=REMINISCING
TTITLE1=もっと
TTITLE2=木洩れ陽
TTITLE3=What Do You Think
TTITLE4=Love Junky
TTITLE5=美しいつながり
TTITLE6=You can go your own way
TTITLE7=PANSY
TTITLE8=Falling in Love
TTITLE9=鏡の中の二人
TTITLE10=CAT WALK
TTITLE11=夜の蝉
EXTD=
EXTT0=
EXTT1=
EXTT2=
EXTT3=
EXTT4=
EXTT5=
EXTT6=
EXTT7=
EXTT8=
EXTT9=
EXTT10=
EXTT11=
PLAYORDER=
